<svg height='100px' width='100px'  fill="#000000" xmlns="http://www.w3.org/2000/svg" viewBox="0 0 512 512" x="0px" y="0px"><g><path d="M438.183,202.606c.137,0,.276.013.414.013a29.684,29.684,0,0,0,29.371-25.9,4,4,0,0,0-3.458-4.478A29.674,29.674,0,0,0,431.3,197.9a3.53,3.53,0,0,0-.01.384c-3.64,3.952-7.23,7.987-10.733,12.065a14.891,14.891,0,0,0-7.216-1.855,14.679,14.679,0,0,0-5.349,1.012,37.909,37.909,0,0,0,6.424-8.089A4,4,0,0,0,413,195.934a38.155,38.155,0,0,0-39.978.756c-.271-.082-.544-.158-.821-.226q6.3-17.2,13.976-33.887a38.155,38.155,0,0,0,48.306-15.513,4,4,0,0,0-1.413-5.477,37.936,37.936,0,0,0-28.933-4.082,38.552,38.552,0,0,0-6.779,2.448q4.22-7.982,8.745-15.782a29.713,29.713,0,0,0,23.359-31.8,4.008,4.008,0,0,0-4.359-3.606A29.669,29.669,0,0,0,398.35,121.09a3.789,3.789,0,0,0,.073.385q-9.35,16.233-17.392,33.222c-.077.128-.161.252-.237.381a3.968,3.968,0,0,0-.394.966q-1.043,2.221-2.063,4.453a38.655,38.655,0,0,0-1.45-6.6,38,38,0,0,0-9.243-15.359,38.26,38.26,0,0,0,3.341-5.378,4,4,0,0,0-1.756-5.381,37.917,37.917,0,0,0-29.13-2.242,38.4,38.4,0,0,0-8.292,3.853,14.975,14.975,0,0,0-1.44-4.491q4.507-14.495,9.988-28.7A38.192,38.192,0,0,0,387.567,77.64a4,4,0,0,0-1.757-5.377,38.166,38.166,0,0,0-35.761.664q3.717-8.261,7.756-16.34a29.71,29.71,0,0,0,21.283-33.214,4,4,0,0,0-4.577-3.323,29.669,29.669,0,0,0-24.653,33.958,4.138,4.138,0,0,0,.1.4q-8.271,16.728-15.224,34.175c-.079.153-.166.3-.244.453a3.987,3.987,0,0,0-.343,1.054c-.592,1.506-1.184,3.011-1.762,4.523a38.677,38.677,0,0,0-1.868-6.5,37.931,37.931,0,0,0-20.16-21.15A4,4,0,0,0,305.083,69a37.929,37.929,0,0,0-.7,29.211c.358.927.759,1.828,1.182,2.715a16.8,16.8,0,0,0-9.3-.483,34.084,34.084,0,0,0,2.717-23.866L286.521,26.773a10.019,10.019,0,0,0-9.741-7.6h-38.9a10.042,10.042,0,0,0-9.741,7.6l-12.45,49.811a34.253,34.253,0,0,0,.168,17.115,16.787,16.787,0,0,0-6.836.082A37.879,37.879,0,0,0,206.917,69a4,4,0,0,0-5.277-2.038,37.931,37.931,0,0,0-20.16,21.15,38.556,38.556,0,0,0-1.866,6.5c-.577-1.509-1.172-3.011-1.764-4.515a3.962,3.962,0,0,0-.343-1.054c-.09-.178-.19-.348-.283-.524Q170.311,71.153,162.04,54.41c.035-.134.08-.263.1-.4A29.669,29.669,0,0,0,137.489,20.05a4,4,0,0,0-4.577,3.323A29.711,29.711,0,0,0,154.2,56.587q4.026,8.078,7.741,16.333a38.173,38.173,0,0,0-35.747-.657,4,4,0,0,0-1.757,5.377A38.187,38.187,0,0,0,171.663,96.2q4.72,12.247,8.714,24.719a14.59,14.59,0,0,0,.85,9.147,38.347,38.347,0,0,0-9.326-4.523,37.921,37.921,0,0,0-29.13,2.242,4,4,0,0,0-1.756,5.381,38.26,38.26,0,0,0,3.341,5.378,38,38,0,0,0-9.243,15.359,38.6,38.6,0,0,0-1.45,6.592q-1.02-2.232-2.064-4.453a4,4,0,0,0-.393-.961c-.085-.144-.178-.282-.265-.425q-8-16.893-17.367-33.159a3.891,3.891,0,0,0,.077-.4A29.671,29.671,0,0,0,86.9,88.762a4.006,4.006,0,0,0-4.359,3.606,29.664,29.664,0,0,0,23.352,31.8q4.535,7.812,8.747,15.781a38.545,38.545,0,0,0-6.774-2.446,37.927,37.927,0,0,0-28.933,4.082,4,4,0,0,0-1.413,5.477,38.155,38.155,0,0,0,48.311,15.511q7.894,17.151,14.336,34.9A38.235,38.235,0,0,0,99,195.934a4,4,0,0,0-1.414,5.48,37.97,37.97,0,0,0,13.573,13.511,38.281,38.281,0,0,0-2.267,17.051c-1-1.323-1.995-2.657-3.015-3.969a4.006,4.006,0,0,0-.575-.817c-.116-.123-.238-.237-.355-.358Q93.4,212.072,80.712,198.306a3.749,3.749,0,0,0-.011-.41A29.674,29.674,0,0,0,47.49,172.244a4,4,0,0,0-3.458,4.478,29.684,29.684,0,0,0,29.371,25.9c.134,0,.268-.011.4-.013q6.141,6.625,12.035,13.5a38.171,38.171,0,0,0-34.5,9.423,4,4,0,0,0-.174,5.655,38.214,38.214,0,0,0,50.521,4.529q10.906,14.259,20.665,29.308c-.063.1-.13.194-.191.3-.135.225-.256.457-.38.686a38.374,38.374,0,0,0-38.907,8.136,4,4,0,0,0-.174,5.655,38.388,38.388,0,0,0,22.594,11.654L93.5,300.877l.006.007A3.992,3.992,0,0,0,92,304V488a4,4,0,0,0,4,4H416a4,4,0,0,0,4-4V312.216a14.834,14.834,0,0,0-.1-22.258l-10.39-9.081c-3.367-2.94-6.881-5.794-10.446-8.483l-2.024-1.524h.149a38.212,38.212,0,0,1,17.211,4.068,14.922,14.922,0,1,0,6.545-28.268l-5.844.05a150.6,150.6,0,0,0-16.215,1.039l-2.314.276,5.607-3.738a47.158,47.158,0,0,1,12.383-5.862,38.129,38.129,0,0,0,46.27-7.253,4,4,0,0,0-.173-5.656,38.162,38.162,0,0,0-34.353-9.451c-.017-.029-.032-.06-.049-.089C430.14,211.455,434.133,206.974,438.183,202.606ZM316.812,114.8a37.971,37.971,0,0,0,3.306,2.249,14.988,14.988,0,0,0-2.093-.3c-.362-.024-.722-.013-1.083-.012A16.548,16.548,0,0,0,316.812,114.8ZM309.8,138.811A18.771,18.771,0,0,0,312.83,128.2l1.208-1.776c.3-.433.556-.883.807-1.337a6.937,6.937,0,0,1,5.614,12.622l-1.117.628-.063.035-14.476,8.14Zm52.982,67.6a7.863,7.863,0,0,1,13.53,5.427,7.669,7.669,0,0,1-.108,1.288l-5.146,31.646a18.99,18.99,0,0,0-6.891.12l-3.529-32.182A7.83,7.83,0,0,1,362.78,206.413ZM268.9,372.4c.651-.1,1.3-.208,1.95-.351a27.554,27.554,0,0,0,7.87-3.065l2.52,1.6,2.688,7.2c2.236,6,4.257,12.078,6.009,18.058l5.689,19.428a11.929,11.929,0,0,1-9.872,15.179,12.785,12.785,0,0,1-1.6.109,11.923,11.923,0,0,1-11.892-12.241c.055-1.881.082-3.864.082-6.239A231.156,231.156,0,0,0,268.9,372.4ZM183.547,239.32l17.811,24.361a66.961,66.961,0,0,0-9.1,9.107l-2.93,3.559,2.763-16.993a15.671,15.671,0,0,0,.215-2.584,15.913,15.913,0,0,0-14.556-15.787,37.768,37.768,0,0,0,3.175-4.238A34.8,34.8,0,0,0,183.547,239.32Zm26.189-32.457a26.251,26.251,0,0,1,11.314-26.115l17.869-11.918,9.63,38.527a26.489,26.489,0,0,1,.748,5.3l-1.608,6.432a34.683,34.683,0,0,0-.925,5.909,25.867,25.867,0,0,1-5.522,7.65h-27.2ZM196.406,148q-.784-3.148-1.605-6.271L204.792,148Zm48.121-12.466L252,145.758v42.415L243.858,155.6a10.057,10.057,0,0,0-2.027-3.974l.612-5.317-.011,0a3.962,3.962,0,0,0-.055-1.313l-.518-2.36Zm76.9,78.3A16.707,16.707,0,0,0,319,242.729a26.108,26.108,0,0,1-3.137,3.591H288.7l-4.293-25.8a26.269,26.269,0,0,1,11.314-26.115L313.583,182.5Zm36.608,105.913a20,20,0,0,0-4.882-1.193,98.024,98.024,0,0,0-17.368-.364,16.9,16.9,0,0,0,11.213-10.866A73.094,73.094,0,0,1,357.682,286.8l-2.088,23.016c-.039.479-.064.958-.064,1.437A15.7,15.7,0,0,0,358.031,319.748ZM171.53,356.17c0-.254.016-.513.033-.738l2.368-26.1a20.2,20.2,0,0,0,2.069.107,19.888,19.888,0,0,0,6.335-1.045l4.789,26.338a7.86,7.86,0,1,1-15.594,1.437ZM177,248.94a7.889,7.889,0,0,1,7.315,7.83,7.633,7.633,0,0,1-.108,1.279l-4.97,30.565-.813.988A19.9,19.9,0,0,0,176,289.44c-.646,0-1.283.037-1.914.1l-2.258-2.794-3.192-29.1a7.857,7.857,0,0,1,8.359-8.7Zm30.552,19.993a59.45,59.45,0,0,1,10.784-6.817,6.855,6.855,0,0,1,9.156,3.072,6.85,6.85,0,0,1-4.469,9.732,55.423,55.423,0,0,0-17.277,7.642l-17.1,11.4a20.081,20.081,0,0,0-1.95-1.391l.088-.54,11.662-14.165A59.126,59.126,0,0,1,207.547,268.933ZM269.88,169.67h38.9a2.039,2.039,0,0,1,1.98,1.551l.768,3.07c-.082.046-.168.078-.247.131l-20,13.331a34.278,34.278,0,0,0-14.764,34.083l4.074,24.484H262.776a26.058,26.058,0,0,1-7.325-25.291l12.446-49.8A2.053,2.053,0,0,1,269.88,169.67Zm9.8,152.388a27.463,27.463,0,0,0-5.316-2.626l18.07-36.615a13.309,13.309,0,0,1,11.732-7.46,15.615,15.615,0,0,0,1.791,1.66,15.323,15.323,0,0,0,8.838,3.223,13.466,13.466,0,0,1,3.061,8.52,13.131,13.131,0,0,1-.316,2.869,16.885,16.885,0,0,0-2.939,5.865c-.05.058-.1.127-.148.182l-27.643,30.961A27.329,27.329,0,0,0,279.684,322.058ZM219.66,284.351a22.411,22.411,0,0,0,3.5,7.3H223.1a148.467,148.467,0,0,0-16.215,1.038l-2.331.279,5.62-3.747A47.517,47.517,0,0,1,219.66,284.351Zm-25.034,17.857,13.212-1.576a140.026,140.026,0,0,1,15.343-.982l5.834-.06a7.052,7.052,0,0,1,5.39,2.51,6.921,6.921,0,0,1-8.421,10.6,46.142,46.142,0,0,0-10.119-3.669,46.686,46.686,0,0,0-10.675-1.246h-9.273A19.839,19.839,0,0,0,194.626,302.208Zm45.419,14.4q1.256,2.272,2.443,4.59l-4.025-3.1A14.721,14.721,0,0,0,240.045,316.613Zm11.423,4.661c-2.3-4.76-4.815-9.412-7.516-13.9a14.887,14.887,0,0,0-10.134-15.006c-1.208-1.605-2.435-3.191-3.67-4.712a14.561,14.561,0,0,1-2.856-5.766,14.793,14.793,0,0,0,8.542-16.938,14.39,14.39,0,0,1,5.676-1.189,14.629,14.629,0,0,1,14.227,11.151l3.409,13.776a269.178,269.178,0,0,1,5.493,29.08A27.681,27.681,0,0,0,251.468,321.274Zm73.614-38.121a21.51,21.51,0,0,0-1.738-4.425l8.78-2.247A81.609,81.609,0,0,0,325.082,283.153Zm22.936-19-30.749,7.869A7.428,7.428,0,1,1,315.41,257.4c.222,0,.444.015.666.035l32.379,2.87A20.02,20.02,0,0,0,348.018,264.156ZM245.686,239.414c.834-.731,1.633-1.492,2.385-2.291a34.106,34.106,0,0,0,10.145,15.866l23.892,32.682-10.882,22.051c-1.164-7-2.6-14.006-4.313-20.952L263.5,272.992A22.613,22.613,0,0,0,241.51,255.76a22.333,22.333,0,0,0-9.519,2.128q-.41-.421-.85-.807Zm-54.139,94.925c1.161,1.381,2.307,2.778,3.423,4.206,1.295,1.656,2.548,3.359,3.78,5.081-1.76.39-3.52.832-5.276,1.309Zm9.724-.722c-3.124-4-6.433-7.828-9.861-11.443a19.975,19.975,0,0,0,2.8-4.516l8.038,6.055c3.412,2.574,6.776,5.307,10,8.119l10.389,9.08a6.858,6.858,0,0,1-.11,10.414,6.847,6.847,0,0,1-10.276-1.722A157.378,157.378,0,0,0,201.271,333.617Zm16.24-7.809c-3.365-2.939-6.878-5.792-10.445-8.484l-2.036-1.534h.16a38.74,38.74,0,0,1,8.844,1.033,38.1,38.1,0,0,1,8.367,3.035,14.888,14.888,0,0,0,6.668,1.587c.191,0,.38-.025.57-.032l12,9.227a27.462,27.462,0,0,0-3.567,8.694l-8.6-2.823a14.7,14.7,0,0,0-1.566-1.622Zm97.858-17.142a16.964,16.964,0,0,0,14.008,10.164,98.277,98.277,0,0,0-17.4,3.956l-13,4.232ZM339.4,304.8a8.931,8.931,0,1,1-15.142-8.762L329.619,290a73.641,73.641,0,0,1,12.775-11.371l7.652-5.356a20.084,20.084,0,0,0,3.843,5.4A80.973,80.973,0,0,0,339.4,304.8Zm-16-54.744a33.906,33.906,0,0,0,3.082-4.05,109.563,109.563,0,0,1,12.309,5.414ZM312.26,162.295a10.043,10.043,0,0,0-3.48-.625H294.83a4.029,4.029,0,0,0,.592-.708l0,0,19.71-11.083C314.121,154.015,313.154,158.161,312.26,162.295Zm-30.1-.625h-4.927l-.3-4.472,7.258,2.82ZM269.3,147.813l-.632,2.335a3.99,3.99,0,0,0-.119,1.307h-.008l.01.157v.015l.668,10.071a10.047,10.047,0,0,0-9.079,7.582l-.139.555v-24.8l6.045-7.346ZM156.019,309.077l-30.75,7.878a7.426,7.426,0,1,1-1.192-14.591l32.379,2.863A19.922,19.922,0,0,0,156.019,309.077Zm-15.973,12.35a82.131,82.131,0,0,0-7.232,6.9l-4.781-3.826Zm-7.787,19.53,5.36-6.029a73.7,73.7,0,0,1,12.775-11.381l7.65-5.355a20.1,20.1,0,0,0,3.845,5.407,80.926,80.926,0,0,0-14.484,26.119,8.932,8.932,0,1,1-15.146-8.761Zm33.423-9.236-1.937,21.355-6.964-5.57A72.764,72.764,0,0,1,165.682,331.721Zm6.343,38.456A15.854,15.854,0,0,0,195,353.3l-.086-.472c2.887-.8,5.789-1.484,8.669-2.033.612.969,1.225,1.939,1.814,2.921a14.832,14.832,0,0,0,27.388-5.355l4.821-.208a27.523,27.523,0,0,0,3.952,11.546l-1,.183c-.106.018-.209.042-.312.069a117.057,117.057,0,0,0-43.818,22.309A14.993,14.993,0,0,1,172,370.65C172,370.492,172.02,370.335,172.025,370.177Zm65.332-1.043L216.9,395.6l-12.113-9.7A108.866,108.866,0,0,1,237.357,369.134Zm-18.223,36.643,29.638-38.327c.448.325.9.642,1.374.942a27.4,27.4,0,0,0,10.625,4c.043.243.089.486.133.73l-18.758,45.927a13.405,13.405,0,1,1-23.012-13.272Zm43.986-16.924a223.111,223.111,0,0,1,1.23,23.227c0,2.294-.025,4.2-.079,6.01a20.287,20.287,0,0,0,.058,2.125L256,426.878l-6.339-5.07Zm34.5,4.732c-1.541-5.26-3.295-10.586-5.2-15.88l4.55,2.9a58.072,58.072,0,0,1,8.549,6.667Zm15.544-10.031a66.129,66.129,0,0,0-11.9-9.7l-15.987-10.185a27.754,27.754,0,0,0,2.809-3.678,27.389,27.389,0,0,0,2.788-5.775L292,354.2,312,363.824a208.261,208.261,0,0,1,19.937,10.989l7.268,4.539a12.018,12.018,0,1,1-16.68,16.359A66.938,66.938,0,0,0,313.16,383.554Zm19.252-17.8c-5.519-3.294-11.2-6.367-16.946-9.135l-5.78-2.783,10.888-.224a70.754,70.754,0,0,1,22.891,3.3ZM350.97,350.31a12.075,12.075,0,0,1-3.79-.622,78.834,78.834,0,0,0-26.772-4.077l-28.048.576a27.655,27.655,0,0,0-.98-8.28l23.078-7.513a90.175,90.175,0,0,1,37.808-3.888A11.922,11.922,0,0,1,362.89,338.35a11.612,11.612,0,0,1-.069,1.255A11.9,11.9,0,0,1,350.97,350.31Zm12.56-39.06c0-.262.015-.522.033-.749l2.368-26.093a20.2,20.2,0,0,0,2.069.108,19.865,19.865,0,0,0,6.335-1.046l4.789,26.334a7.861,7.861,0,1,1-15.594,1.446ZM356.479,248.2a20.2,20.2,0,0,0-2.97,2.576,117.947,117.947,0,0,0-27.769-13.514,8.736,8.736,0,0,1-5.96-8.3,8.717,8.717,0,0,1,14.72-6.284l7,6.669a182.761,182.761,0,0,1,14.638,15.729Zm-53.392-113.74-12.6,19.423-13.154-5.11,6.234-23.033a10.823,10.823,0,1,1,19.525,8.72Zm-23.849-24.44a6.919,6.919,0,0,1,2.214,4.561,18.792,18.792,0,0,0-5.613,9.07l-2.7,9.97-5.253-16.35a6.956,6.956,0,0,1,5.627-9.027A6.91,6.91,0,0,1,279.238,110.015Zm-34.028-.285a6.971,6.971,0,0,1-.454,2.453l-6.045,16.087L236.5,118.178a18.7,18.7,0,0,0-5.167-9.321,6.967,6.967,0,0,1,13.879.873Zm-16.527,10.157,5.109,23.306-13.383,4.464-11.652-20.009a10.823,10.823,0,1,1,19.926-7.761Zm-37.434,10.167a6.947,6.947,0,0,1,3.578-12.827h.119A6.906,6.906,0,0,1,199.567,119a18.747,18.747,0,0,0,2.276,12.676l4.617,7.928Zm1.993,27.493A2.036,2.036,0,0,1,195.22,156h38.9a2.049,2.049,0,0,1,1.98,1.55l.766,3.067c-.084.047-.174.08-.256.135l-20,13.339a34.267,34.267,0,0,0-14.767,34.087l4.083,24.472H188.106a26.056,26.056,0,0,1-7.325-25.29l2.187-8.742.008-.02,0-.024Zm-32.618,99.876c.015.364.02.728.06,1.094l1.936,17.657c-2.47-2.638-5-5.215-7.6-7.69l-3.753-3.576ZM142.5,267.605l7,6.672a181,181,0,0,1,14.635,15.728l.342,3.115a20.155,20.155,0,0,0-2.971,2.577,118.157,118.157,0,0,0-27.774-13.522,8.714,8.714,0,0,1-5.954-8.285,8.56,8.56,0,0,1,1.24-4.46,8.711,8.711,0,0,1,13.48-1.825Zm-15.148,20.289a16.687,16.687,0,0,0,3.853,1.871,110.119,110.119,0,0,1,15.587,6.576L124.784,294.4c-.458-.042-.916-.066-1.374-.066a15.43,15.43,0,0,0-15.348,14.2L102.4,304l16.326-13.061-.02-.024A37.931,37.931,0,0,0,127.352,287.894Zm.12,46.407-1.195,1.344a16.928,16.928,0,1,0,27.372,19.6l11.268,9.012a22.972,22.972,0,0,0,22.1,29.353,22.62,22.62,0,0,0,11.042-2.843l13.979,11.191a21.1,21.1,0,0,0-3.671,11.024L100,480.78V312.323Zm82.253,87.268a21.4,21.4,0,0,0,35.635,7.042l8.142,6.513a4,4,0,0,0,5,0l8.356-6.685A19.836,19.836,0,0,0,284.16,438.56a20.9,20.9,0,0,0,2.619-.174,19.922,19.922,0,0,0,16.954-15.9L402.065,484H109.934Zm93.5-8.841-3.174-10.842,10.915-8.73a58.445,58.445,0,0,1,4.694,6.665,19.855,19.855,0,0,0,14.911,9.616,20.5,20.5,0,0,0,2.314.131,20.022,20.022,0,0,0,10.557-37l-3.786-2.364,15.406-12.325a19.844,19.844,0,0,0,14.014-11.213l38.593-30.874a15.233,15.233,0,0,0,2.475.209,14.79,14.79,0,0,0,1.86-.132V480.78Zm67.4-77.546a19.805,19.805,0,0,0-3.691-8.75A15.859,15.859,0,0,0,387,308.374l-3.447-18.956c1.162,1.382,2.308,2.776,3.419,4.194a151.772,151.772,0,0,1,10.425,15.178,15.007,15.007,0,0,0,2.41,3.046Zm12.546-115.037a38.1,38.1,0,0,0,11.146-2.189,67.925,67.925,0,0,0-10.051,9.9l-2.928,3.559Zm-19.592-23.36a15.805,15.805,0,0,0-10.89,16.8l1.936,17.661c-2.467-2.636-5-5.212-7.6-7.692l-5.881-5.6a38.055,38.055,0,0,0,11.028-19.857,4,4,0,0,0-3.1-4.731,37.91,37.91,0,0,0-23.829,2.749l-6.463-25.834c1.26-6.259,2.675-12.572,4.222-18.868a37.852,37.852,0,0,0,25.426.875,38.381,38.381,0,0,0,1.743,10.036,37.9,37.9,0,0,0,18.081,22Q365.818,190.524,363.574,196.785Zm-2.12-63.31c-.29-.19-.59-.37-.887-.552.355.106.713.195,1.065.315C361.575,133.319,361.512,133.4,361.454,133.475Zm-57.55-24.6a8.85,8.85,0,0,1,5.047,8.253,18.649,18.649,0,0,0-14.211-7.355,8.859,8.859,0,0,1,9.164-.9Zm-12.685-30.36a26.076,26.076,0,0,1-7.141,25.134,14.829,14.829,0,0,0-19.3.168H256.7l-4.293-25.8a26.269,26.269,0,0,1,11.314-26.115L281.583,40Zm-67.768,0,12.446-49.8a2.048,2.048,0,0,1,1.983-1.552h38.9a2.031,2.031,0,0,1,1.979,1.541l.77,3.079c-.082.047-.168.079-.248.132l-20,13.331a34.278,34.278,0,0,0-14.764,34.083l3.125,18.779a14.849,14.849,0,0,0-20.424,1.509A26.34,26.34,0,0,1,223.451,78.52ZM216.792,102.4a8.972,8.972,0,0,1,1.479.989c-.051,0-.1-.006-.151-.006a18.8,18.8,0,0,0-14.394,6.7,8.909,8.909,0,0,1,13.066-7.681Zm-53.234,49.88a37.772,37.772,0,0,0,23.583-.192,10.044,10.044,0,0,0-1.662,3.524l-9.341,37.344a37.825,37.825,0,0,0-13.2.411,4,4,0,0,0-3.1,4.73,37.82,37.82,0,0,0,4.434,11.515,38.133,38.133,0,0,0-7.189,13.845q-5.794-19.872-13.318-39.133A38.192,38.192,0,0,0,163.558,152.277Zm-26.782,75.244a38.554,38.554,0,0,0-.143-7.827,38.4,38.4,0,0,0,10-3.111q5.325,16.941,9.339,34.315L145.1,259.6a16.724,16.724,0,0,0-16.885-.224c-1.4-2.146-2.8-4.291-4.236-6.415A37.906,37.906,0,0,0,136.776,227.521ZM404.248,286.9l10.386,9.078a6.859,6.859,0,0,1-.106,10.417,6.848,6.848,0,0,1-10.279-1.725,159.805,159.805,0,0,0-10.979-15.986c-3.1-3.962-6.412-7.789-9.861-11.435a20.014,20.014,0,0,0,2.8-4.516l8.038,6.049C397.661,281.355,401.024,284.087,404.248,286.9Zm-4.418-31.2a142.713,142.713,0,0,1,15.344-.983l5.841-.05h.06a6.921,6.921,0,1,1-3.091,13.115,46.183,46.183,0,0,0-20.794-4.915h-9.273a19.833,19.833,0,0,0-1.293-5.591Zm-2.089-18.061-17.094,11.4a20.137,20.137,0,0,0-1.952-1.394l.086-.532,11.66-14.174a60.235,60.235,0,0,1,19.888-15.751,6.753,6.753,0,0,1,3.011-.7A6.856,6.856,0,0,1,415.019,230c-.267.067-.529.146-.794.217-.074.016-.144.039-.216.059A55.139,55.139,0,0,0,397.741,237.642Z"></path></g></svg>